<?xml version="1.0" standalone="no"?>
<!DOCTYPE svg PUBLIC "-//W3C//DTD SVG 20010904//EN"
 "http://www.w3.org/TR/2001/REC-SVG-20010904/DTD/svg10.dtd">
<svg version="1.0" xmlns="http://www.w3.org/2000/svg"
 width="840.000000pt" height="840.000000pt" viewBox="0 0 840.000000 840.000000"
 preserveAspectRatio="xMidYMid meet">
<metadata>
Created by potrace 1.14, written by Peter Selinger 2001-2017
</metadata>
<g transform="translate(0.000000,840.000000) scale(0.100000,-0.100000)"
fill="#000000" stroke="none">
<path d="M1600 5906 c-51 -15 -115 -47 -147 -75 -29 -24 -29 -62 -2 -118 26
-54 23 -69 -24 -107 -34 -27 -45 -31 -95 -29 -52 2 -288 28 -497 55 -99 12
-298 3 -385 -17 -113 -27 -199 -76 -273 -154 -113 -120 -166 -263 -154 -419
13 -181 98 -290 397 -516 148 -112 267 -210 308 -254 21 -23 22 -30 17 -111
-13 -182 -66 -421 -142 -649 -19 -57 -32 -109 -30 -115 3 -7 107 -82 231 -167
125 -85 298 -204 386 -265 87 -60 242 -167 343 -237 l184 -127 363 -7 362 -7
-4 39 c-3 21 -17 119 -32 217 -20 135 -27 222 -29 360 -2 195 10 425 23 447 7
11 21 11 83 0 l75 -14 21 -50 c40 -96 80 -137 212 -221 826 -525 1232 -779
1289 -807 110 -53 214 -78 330 -78 121 0 169 14 262 77 105 72 127 73 184 9
l41 -47 304 7 c167 3 307 9 312 13 4 4 -1 77 -12 162 -50 395 -55 636 -15 832
3 15 9 27 13 27 9 0 255 -179 662 -481 415 -308 624 -446 821 -545 103 -52
111 -54 185 -54 101 0 168 17 278 71 71 35 98 55 132 96 49 61 54 78 90 273
14 80 30 149 34 154 5 6 28 0 56 -14 40 -20 63 -24 143 -25 86 0 101 3 160 31
66 32 146 104 195 176 118 174 159 563 77 728 -25 50 -336 627 -658 1223 -68
125 -140 253 -160 285 -55 87 -191 214 -268 252 -85 42 -147 49 -511 55 -159
2 -375 10 -480 17 -431 29 -644 6 -835 -92 -105 -54 -199 -186 -247 -347 -10
-35 -21 -63 -25 -63 -3 0 -53 86 -109 192 -57 105 -112 202 -122 215 -10 13
-67 47 -125 76 -95 46 -115 52 -183 55 -110 6 -212 -13 -299 -55 -60 -28 -93
-54 -167 -129 l-93 -94 -61 91 c-56 84 -63 90 -87 84 -100 -25 -418 -7 -717
41 -134 21 -352 15 -447 -14 -181 -55 -328 -185 -385 -342 -11 -30 -25 -56
-30 -57 -6 -2 -31 36 -56 84 -149 286 -140 272 -228 350 -56 48 -98 76 -124
83 -22 6 -61 17 -87 25 -56 18 -166 18 -228 1z m226 -57 c108 -20 203 -88 247
-179 46 -95 60 -172 53 -285 -11 -188 -57 -298 -163 -395 -68 -62 -108 -83
-209 -110 -91 -24 -118 -24 -199 -5 -81 20 -89 19 -125 -12 l-32 -26 6 -491
c3 -270 10 -513 15 -541 10 -50 61 -346 61 -352 0 -2 -178 -3 -395 -3 l-395 0
0 23 c0 12 14 79 31 147 29 120 56 247 98 465 36 185 53 457 41 660 -12 206
-26 279 -64 334 -35 51 -72 65 -143 58 -77 -8 -103 -34 -103 -100 0 -48 2 -52
61 -108 50 -48 60 -62 54 -81 -13 -43 -62 -93 -121 -122 -50 -25 -70 -30 -135
-29 -68 0 -83 4 -148 38 -75 40 -127 96 -149 164 -20 56 -26 209 -12 291 29
176 141 305 312 357 71 22 257 22 418 0 463 -63 590 -60 675 15 42 36 45 70
16 154 -22 60 -17 95 16 109 75 31 194 41 289 24z m2814 -83 c101 -18 161 -48
236 -118 84 -79 99 -121 97 -285 -2 -131 -13 -174 -70 -255 -30 -44 -43 -46
-85 -16 -17 12 -52 23 -79 26 -53 5 -66 -5 -124 -87 -81 -118 -107 -379 -94
-971 7 -324 11 -386 28 -460 30 -125 30 -126 -26 -134 -27 -3 -183 -6 -348 -7
l-300 -1 -6 264 c-7 289 -10 318 -45 462 -28 112 -105 286 -127 286 -36 0 -38
-21 -27 -249 12 -251 1 -362 -50 -503 -63 -171 -188 -287 -360 -333 -112 -30
-327 -13 -417 33 -114 59 -205 171 -229 284 -22 103 -22 256 1 348 22 89 52
138 131 206 123 105 139 108 178 29 30 -62 48 -75 105 -75 53 0 89 15 129 53
65 62 69 79 103 407 22 219 -3 446 -62 563 -31 60 -97 127 -126 127 -38 0 -91
-29 -119 -65 -26 -35 -33 -110 -14 -159 12 -33 66 -66 108 -66 28 0 32 -3 32
-27 0 -41 -42 -123 -85 -167 -21 -21 -63 -50 -92 -63 -70 -32 -187 -34 -285
-3 -56 17 -74 29 -116 75 -65 71 -99 142 -112 235 -18 124 8 290 58 367 60 93
215 190 346 218 72 14 95 14 250 1 94 -8 214 -18 266 -21 52 -3 167 -12 255
-20 88 -8 192 -16 230 -17 l70 -3 6 -140 c7 -149 9 -169 40 -338 34 -186 162
-533 194 -529 17 3 17 103 1 283 -31 330 -18 476 53 616 67 134 102 163 263
218 83 28 113 30 218 11z m1374 -31 c78 -9 177 -20 221 -25 165 -19 274 -22
423 -10 132 10 178 9 325 -5 159 -16 177 -20 237 -51 117 -61 192 -140 277
-294 34 -61 76 -187 91 -270 17 -95 -10 -328 -59 -505 -79 -293 -269 -450
-519 -431 -99 8 -188 39 -266 92 -43 29 -66 40 -68 32 -3 -7 -9 -94 -15 -193
-6 -99 -18 -212 -26 -252 -32 -151 -132 -273 -280 -345 -149 -71 -279 -77
-496 -23 -77 19 -152 41 -167 49 -69 35 -170 184 -192 281 -16 69 -14 239 4
303 24 89 129 215 201 242 23 9 28 7 43 -22 27 -51 87 -108 113 -108 117 0
195 103 226 298 19 117 21 472 4 607 -15 116 -41 169 -99 206 -54 34 -94 37
-139 9 -44 -26 -63 -68 -63 -137 0 -56 2 -59 37 -83 20 -14 44 -43 55 -66 21
-49 13 -86 -34 -146 -69 -89 -280 -112 -416 -47 -62 30 -143 112 -178 180 -24
47 -29 68 -32 161 -4 90 -1 119 18 180 57 192 172 300 382 362 100 30 191 32
392 11z"/>
<path d="M6705 5281 c-43 -26 -65 -63 -86 -149 -22 -85 -24 -185 -8 -281 20
-113 29 -119 114 -71 60 34 115 91 143 147 44 86 60 259 29 306 -41 63 -131
86 -192 48z"/>
</g>
</svg>
